<svg width="30" height="10" viewBox="0 0 30 10" fill="none" xmlns="http://www.w3.org/2000/svg">
<path d="M22.5 6.04166C22.6658 6.04166 22.8247 5.97582 22.9419 5.85861C23.0592 5.7414 23.125 5.58242 23.125 5.41666C23.125 5.2509 23.0592 5.09193 22.9419 4.97472C22.8247 4.85751 22.6658 4.79166 22.5 4.79166C22.3342 4.79166 22.1753 4.85751 22.0581 4.97472C21.9408 5.09193 21.875 5.2509 21.875 5.41666C21.875 5.58242 21.9408 5.7414 22.0581 5.85861C22.1753 5.97582 22.3342 6.04166 22.5 6.04166ZM15 6.04166C15.1658 6.04166 15.3247 5.97582 15.4419 5.85861C15.5592 5.7414 15.625 5.58242 15.625 5.41666C15.625 5.2509 15.5592 5.09193 15.4419 4.97472C15.3247 4.85751 15.1658 4.79166 15 4.79166C14.8342 4.79166 14.6753 4.85751 14.5581 4.97472C14.4408 5.09193 14.375 5.2509 14.375 5.41666C14.375 5.58242 14.4408 5.7414 14.5581 5.85861C14.6753 5.97582 14.8342 6.04166 15 6.04166ZM7.5 6.04166C7.66576 6.04166 7.82473 5.97582 7.94194 5.85861C8.05915 5.7414 8.125 5.58242 8.125 5.41666C8.125 5.2509 8.05915 5.09193 7.94194 4.97472C7.82473 4.85751 7.66576 4.79166 7.5 4.79166C7.33424 4.79166 7.17527 4.85751 7.05806 4.97472C6.94085 5.09193 6.875 5.2509 6.875 5.41666C6.875 5.58242 6.94085 5.7414 7.05806 5.85861C7.17527 5.97582 7.33424 6.04166 7.5 6.04166Z" fill="white" stroke="white" stroke-width="2" stroke-linecap="round" stroke-linejoin="round"/>
</svg>
