<svg width="20" height="20" viewBox="0 0 20 20" fill="none" xmlns="http://www.w3.org/2000/svg">
<path d="M11.4417 17.5C11.2953 17.7528 11.0851 17.9626 10.8321 18.1085C10.579 18.2544 10.2921 18.3312 10 18.3312C9.70792 18.3312 9.42097 18.2544 9.16794 18.1085C8.9149 17.9626 8.70467 17.7528 8.55833 17.5M15 6.99999C15 5.58582 14.4733 4.22916 13.5358 3.22916C12.5975 2.22916 11.325 1.66666 10 1.66666C8.67417 1.66666 7.4025 2.22832 6.46417 3.22916C5.52667 4.22916 5 5.58582 5 6.99999C5 13.2225 2.5 15 2.5 15H17.5C17.5 15 15 13.2225 15 6.99999Z" stroke="white" stroke-width="1.5" stroke-linecap="round" stroke-linejoin="round"/>
</svg>
