<svg width="20" height="20" viewBox="0 0 20 20" fill="none" xmlns="http://www.w3.org/2000/svg">
<path d="M14.0086 5.05001L3.37852 15.7063L2.73438 17.2656L4.29375 16.6215L14.95 5.99142L14.0086 5.05001ZM16.1355 2.92345L15.675 3.3836L16.6164 4.32501L17.077 3.86446C17.1978 3.74353 17.2657 3.57956 17.2657 3.4086C17.2657 3.23764 17.1978 3.07368 17.077 2.95274L17.0477 2.92345C16.9878 2.86355 16.9167 2.81604 16.8384 2.78363C16.7602 2.75121 16.6763 2.73453 16.5916 2.73453C16.5069 2.73453 16.423 2.75121 16.3448 2.78363C16.2665 2.81604 16.1954 2.86355 16.1355 2.92345Z" stroke="white" stroke-width="2" stroke-linecap="round" stroke-linejoin="round"/>
</svg>
