<svg width="24" height="23" viewBox="0 0 24 23" fill="none" xmlns="http://www.w3.org/2000/svg">
<path d="M15 3.83332V1.91666M15 3.83332V5.74999M15 3.83332H10.5M3 9.58332V18.2083C3 18.7167 3.21071 19.2042 3.58579 19.5636C3.96086 19.9231 4.46957 20.125 5 20.125H19C19.5304 20.125 20.0391 19.9231 20.4142 19.5636C20.7893 19.2042 21 18.7167 21 18.2083V9.58332M3 9.58332H21M3 9.58332V5.74999C3 5.24166 3.21071 4.75415 3.58579 4.3947C3.96086 4.03526 4.46957 3.83332 5 3.83332H7M21 9.58332V5.74999C21 5.24166 20.7893 4.75415 20.4142 4.3947C20.0391 4.03526 19.5304 3.83332 19 3.83332H18.5M7 1.91666V5.74999" stroke="#6894EC" stroke-width="1.5" stroke-linecap="round" stroke-linejoin="round"/>
</svg>
